PathFileType	4	(X/Y/Z)	pose_F01_0-95.trc
DataRate	CameraRate	NumFrames	NumMarkers	Units	OrigDataRate	OrigDataStartFrame	OrigNumFrames
30	30	7	21	m	30	71	95
Frame#	Time	CHip			RHip			RKnee			RAnkle			RBigToe			RSmallToe			RHeel			LHip			LKnee			LAnkle			LBigToe			LSmallToe			LHeel			Neck			Nose			RShoulder			RElbow			RWrist			LShoulder			LElbow			LWrist			
		X1	Y1	Z1	X2	Y2	Z2	X3	Y3	Z3	X4	Y4	Z4	X5	Y5	Z5	X6	Y6	Z6	X7	Y7	Z7	X8	Y8	Z8	X9	Y9	Z9	X10	Y10	Z10	X11	Y11	Z11	X12	Y12	Z12	X13	Y13	Z13	X14	Y14	Z14	X15	Y15	Z15	X16	Y16	Z16	X17	Y17	Z17	X18	Y18	Z18	X19	Y19	Z19	X20	Y20	Z20	X21	Y21	Z21	
71	2.3666666666666667	-0.31799790961312685	1.871814557024758	-0.5829282646658269	-0.331283829832922	1.8684186691665066	-0.5214640131665513	-0.32793635896051926	1.7404994735061647	-0.4278557885312023													-0.3034406834100624	1.8703846670064037	-0.6439504727622484	-0.23897153465697604	1.7638355370020706	-0.729368040960904	-0.253093107029543	1.6422463480597265	-0.7263220785422395	-0.24101748814388924	1.6003396575087554	-0.7219903137502093	-0.2354860569718144	1.6073355472560678	-0.7570578153261979	-0.26091162479911184	1.6382621986162484	-0.7107211543505683	-0.3021612790287994	2.027046867367783	-0.6022788460765971	-0.2841328051192881	2.085537748096272	-0.5859829902860635	-0.32072140981434427	2.0268337395964844	-0.5164050066668503	-1.7962740835584348	1.884881382723384	1.2332664801870805	-0.313641333360562	2.0143302310987883	-0.3338971180178383	-0.2784252521021046	2.02734367126523	-0.6876609722381297	-1.3352047932084246	1.862903129780419	0.4074382076905676	-0.23816426750753186	1.9976607380062454	-0.6415356236639727
72	2.4	-0.3179644315010172	1.8713807935819096	-0.5744219210724858	-0.3291069698835965	1.8654498027673143	-0.5147816261922993	-0.32793635896051926	1.7404994735061647	-0.4278557885312023													-0.3044520734061042	1.871744484247592	-0.638754423985117	-0.23897153465697604	1.7638355370020706	-0.729368040960904	-0.253093107029543	1.6422463480597265	-0.7263220785422395	-0.24101748814388924	1.6003396575087554	-0.7219903137502093	-0.2354860569718144	1.6073355472560678	-0.7570578153261979	-0.26091162479911184	1.6382621986162484	-0.7107211543505683	-0.30761659509441747	2.025290669054969	-0.5839346581827859	-0.288397401614464	2.083078578165705	-0.5731306663698675	-0.32650203957158147	2.0253196911337836	-0.5009542997189441	-0.33319155915162857	1.96611513107094	-0.3760994663378862	-0.32024196650640013	2.004654787929329	-0.3068931865456142	-0.2894281137320513	2.025149893472213	-0.668080045530917	-0.26725294650577197	1.9634795348593415	-0.6648838412283261	-0.23898005513118248	1.9949543470541686	-0.6157205672515098
73	2.433333333333333	-0.3169645858899018	1.8744536555729296	-0.5716117206809497	-0.33004504905618837	1.868818783618665	-0.5100756452164605	-0.32793635896051926	1.7404994735061647	-0.4278557885312023													-0.3034294323471931	1.8778464314574157	-0.6361595031952809	-0.23897153465697604	1.7638355370020706	-0.729368040960904	-0.253093107029543	1.6422463480597265	-0.7263220785422395	-0.24101748814388924	1.6003396575087554	-0.7219903137502093	-0.2354860569718144	1.6073355472560678	-0.7570578153261979	-0.26091162479911184	1.6382621986162484	-0.7107211543505683	-0.31059844537256853	2.028883245727127	-0.5772275395839709	-0.29643662159105966	2.0847409718709398	-0.5648773547765604	-0.3282598316481966	2.0244290940089535	-0.4900792686328769	-0.33588736951959625	1.9655073793886295	-0.3685977844962354	-0.327990523190875	1.9999385415042725	-0.2916901719154381	-0.2902546504415179	2.0344345825953702	-0.6636051024146609	-0.2648389022069821	1.9726319063208573	-0.659284393262708	-0.23834247090937602	1.9995205503504236	-0.5963893921080419
74	2.466666666666667	-0.3158436744848384	1.8771124938968626	-0.5688998026268094	-0.32816695684069275	1.8710669209146273	-0.512333540592706	-0.32793635896051926	1.7404994735061647	-0.4278557885312023													-0.30232666959876	1.8803055034542548	-0.6334438449872184	-0.23897153465697604	1.7638355370020706	-0.729368040960904	-0.253093107029543	1.6422463480597265	-0.7263220785422395	-0.24101748814388924	1.6003396575087554	-0.7219903137502093	-0.2354860569718144	1.6073355472560678	-0.7570578153261979	-0.26091162479911184	1.6382621986162484	-0.7107211543505683	-0.3107103481615371	2.0321569922756915	-0.5779913549544445	-0.29652396533050435	2.0888540316092516	-0.5658778540657671	-0.33332740070092876	2.026858221030344	-0.4899498701599388	-0.3414724672085926	1.9681173797039246	-0.36284636099790574	-0.3341684852420803	1.999759732506405	-0.2807059155489873	-0.2893841217214959	2.037480680348725	-0.6613297549637616	-0.26363250052386994	1.9816945594389996	-0.6752866389926109	-0.24358014029253097	2.0138671066905856	-0.5981954792676205
75	2.5	-0.31258747536815135	1.8790695559075345	-0.5763040039163451	-0.32574724577692243	1.8741362466980018	-0.5148733215411597	-0.32793635896051926	1.7404994735061647	-0.4278557885312023													-0.29784633444066844	1.8826668466344445	-0.6380147249392775	-0.23897153465697604	1.7638355370020706	-0.729368040960904	-0.253093107029543	1.6422463480597265	-0.7263220785422395	-0.24101748814388924	1.6003396575087554	-0.7219903137502093	-0.2354860569718144	1.6073355472560678	-0.7570578153261979	-0.26091162479911184	1.6382621986162484	-0.7107211543505683	-0.3125158347653391	2.0336934229905395	-0.5842750842121223	-0.2972639191843584	2.0937091067686278	-0.5778809948897983	-0.331374111539802	2.0285850382106885	-0.5002832252650642	-1.8086217670489908	1.8873896919646627	1.2541427689688625	-0.3395501914104422	2.0033556416433096	-0.27541278118666546	-0.2912919165087186	2.0400932000032617	-0.6678587332203108	-0.26372653679042124	1.9926154461132928	-0.6877107607682114	-0.2477448997524379	2.0278554660831896	-0.6066725402377734
76	2.533333333333333	-0.31116582210741345	1.8793305088603018	-0.5818997239045136	-0.32253009361710466	1.8762580753483877	-0.5225069356602755	-0.32793635896051926	1.7404994735061647	-0.4278557885312023													-0.29740792673858724	1.8805486412871706	-0.6462371756640789	-0.23897153465697604	1.7638355370020706	-0.729368040960904	-0.253093107029543	1.6422463480597265	-0.7263220785422395	-0.24101748814388924	1.6003396575087554	-0.7219903137502093	-0.2354860569718144	1.6073355472560678	-0.7570578153261979	-0.26091162479911184	1.6382621986162484	-0.7107211543505683	-0.31037302273420514	2.0336617828023544	-0.6030478357363038	-0.2919218286645661	2.096126732016057	-0.6043437121840427	-0.32859475451453907	2.0307681179861183	-0.5164879001187093	-0.34422693061365095	1.974942629873282	-0.3792489971707618	-0.3406522841720053	2.004593487707752	-0.27872425229486864	-0.2916634094050391	2.039498592760942	-0.68753113341465	-0.25688523937233915	1.99001977172805	-0.702572312957436	-0.23703063984988565	2.0324861040312205	-0.6270303033778895
77	2.566666666666667	-0.3049884915242469	1.8797375148260416	-0.6053537218456365	-0.3197954390300973	1.87684268524169	-0.5387958178107518	-0.32793635896051926	1.7404994735061647	-0.4278557885312023													-0.29112926072862355	1.8822712519571656	-0.6615362064241151	-0.23897153465697604	1.7638355370020706	-0.729368040960904	-0.253093107029543	1.6422463480597265	-0.7263220785422395	-0.24101748814388924	1.6003396575087554	-0.7219903137502093	-0.2354860569718144	1.6073355472560678	-0.7570578153261979	-0.26091162479911184	1.6382621986162484	-0.7107211543505683	-0.3037112979674571	2.0365219338339124	-0.62659414044094	-0.28515136458594437	2.097191489281857	-0.6353940435510805	-0.3206573922190948	2.033541243261683	-0.5420515028587142	-0.3422889029819138	1.9758783857127031	-0.4038904050234456	-0.3441639440892427	2.005259099482977	-0.301778431359617	-0.28536207395542296	2.038852801353098	-0.7131512666915476	-0.2538805648911935	1.9910037569009422	-0.7213799315354367	-0.23890380260775074	2.0334420192183544	-0.6525706132466068
